Coordinates
version=1
nRows=19
nColumns=24
inDegrees=yes

Units are S.I. units (second, meters, Newtons, ...)
Angles are in degrees.

endheader
time	pelvis_tilt	pelvis_list	pelvis_rotation	pelvis_tx	pelvis_ty	pelvis_tz	hip_flexion_r	hip_adduction_r	hip_rotation_r	knee_angle_r	ankle_angle_r	subtalar_angle_r	mtp_angle_r	hip_flexion_l	hip_adduction_l	hip_rotation_l	knee_angle_l	ankle_angle_l	subtalar_angle_l	mtp_angle_l	lumbar_extension	lumbar_bending	lumbar_rotation
      5.13500000	    -14.57495279	    -11.15986819	      5.01392323	      0.68039075	     -0.01570804	      0.00248489	     21.38135327	     12.51526327	     -7.13639837	     -3.32801397	    -10.74675859	     -1.77557145	      5.66683915	     20.38957251	    -19.07971206	     -9.00915047	    -60.60122843	    -28.25336092	      9.68765431	     27.13540033	     15.47931452	     12.30041828	     -6.04225611
      5.14000000	    -14.43285526	    -10.87351125	      4.89384485	      0.68582641	     -0.01484749	      0.00326309	     20.75420664	     12.39843582	     -6.81823643	     -3.18456793	    -10.46640294	     -1.73101080	      5.71993115	     20.90918581	    -18.81342998	     -8.95415361	    -61.19216869	    -27.56265262	      9.67910266	     27.18356678	     15.28324961	     12.02000699	     -5.64204442
      5.14500000	    -14.31060926	    -10.63553815	      4.76335157	      0.69116687	     -0.01405208	      0.00406538	     20.18048321	     12.32908362	     -6.57842946	     -3.06937182	    -10.22698072	     -1.68658637	      5.76859574	     21.46193885	    -18.59681245	     -8.89738290	    -61.73258518	    -26.90822250	      9.70309836	     27.40179269	     15.10354381	     11.78450485	     -5.27503507
      5.15000000	    -14.18953228	    -10.35306917	      4.59602605	      0.69657618	     -0.01322581	      0.00486364	     19.58598364	     12.21496785	     -6.24499269	     -2.94066899	     -9.97538620	     -1.60950005	      5.82789844	     21.96303477	    -18.33322025	     -8.88239062	    -62.17644315	    -26.30417796	      9.92832928	     27.67145765	     14.93452555	     11.52740043	     -4.82381214
      5.15500000	    -14.08566848	    -10.05400409	      4.43187302	      0.70180977	     -0.01243956	      0.00569413	     19.05831035	     12.07825237	     -5.98011143	     -2.87900150	     -9.72066369	     -1.55855453	      5.89174934	     22.48660253	    -18.03456597	     -8.86533715	    -62.56389167	    -25.70102823	     10.14950183	     28.02549171	     14.75837816	     11.23888775	     -4.41656310
      5.16000000	    -13.95266914	     -9.75415338	      4.18312296	      0.70716178	     -0.01162106	      0.00660544	     18.47015536	     11.96540663	     -5.60827157	     -2.78859668	     -9.48795758	     -1.46993685	      5.97421597	     22.90654907	    -17.77687386	     -8.94251830	    -62.85277776	    -25.11253855	     10.57666983	     28.49299306	     14.56148672	     10.98780548	     -3.87846804
      5.16500000	    -13.86933427	     -9.41295065	      3.99387497	      0.71240186	     -0.01086039	      0.00743497	     17.96335634	     11.77382628	     -5.29412904	     -2.73350950	     -9.21090246	     -1.38957970	      6.06491087	     23.40527028	    -17.41842075	     -8.95320171	    -63.08946773	    -24.56109427	     10.95889067	     28.93687243	     14.42137968	     10.66015588	     -3.43153906
      5.17000000	    -13.77859444	     -9.07345095	      3.73465053	      0.71761326	     -0.01010796	      0.00834017	     17.46047831	     11.60122011	     -4.95639308	     -2.70172788	     -8.95712604	     -1.27906756	      6.17223618	     23.85131231	    -17.09283190	     -9.03983985	    -63.25482999	    -23.97384308	     11.44771333	     29.44764786	     14.25831827	     10.36242964	     -2.91403621
      5.17500000	    -13.69722468	     -8.72316799	      3.48634546	      0.72271615	     -0.00939008	      0.00924037	     16.99513309	     11.40789360	     -4.65195060	     -2.70323034	     -8.69918118	     -1.19037132	      6.27887675	     24.31117515	    -16.74087790	     -9.12346844	    -63.37097835	    -23.36834060	     11.89507025	     29.91691631	     14.09745793	     10.04018640	     -2.45352945
      5.18000000	    -13.56576671	     -8.40245454	      3.15577007	      0.72792559	     -0.00865210	      0.01022729	     16.45011178	     11.26960615	     -4.26881632	     -2.66917312	     -8.47896022	     -1.07895005	      6.42924121	     24.66023257	    -16.47934980	     -9.31026858	    -63.41461833	    -22.75267621	     12.44493041	     30.43312605	     13.89654564	      9.78501339	     -1.85266881
      5.18500000	    -13.49770732	     -8.04292355	      2.89196190	      0.73309507	     -0.00798722	      0.01109759	     15.98335561	     11.05180890	     -3.92445013	     -2.64313739	     -8.21408515	     -0.97410341	      6.55692680	     25.10116190	    -16.11627135	     -9.42210502	    -63.41376465	    -22.16429231	     12.91595403	     30.81699751	     13.77821743	      9.46312243	     -1.35922119
      5.19000000	    -13.41916845	     -7.69824603	      2.58057676	      0.73822609	     -0.00735130	      0.01203110	     15.51949487	     10.85985752	     -3.56891089	     -2.63788671	     -7.96530149	     -0.86046401	      6.68588216	     25.50548105	    -15.79821929	     -9.59263811	    -63.36586818	    -21.52609362	     13.38103814	     31.15679811	     13.64196692	      9.16600949	     -0.82967848
      5.19500000	    -13.30601350	     -7.36713077	      2.22754027	      0.74329009	     -0.00671684	      0.01301344	     15.02610486	     10.69135450	     -3.17570583	     -2.63676958	     -7.74455028	     -0.77107757	      6.82485461	     25.85207969	    -15.52522205	     -9.82642411	    -63.27796866	    -20.84400385	     13.80763228	     31.39058505	     13.45741806	      8.89660797	     -0.28459241
      5.20000000	    -13.23496131	     -7.02719384	      1.90879130	      0.74838183	     -0.00613458	      0.01392431	     14.57312672	     10.48993925	     -2.80634969	     -2.62013689	     -7.51495322	     -0.67627750	      6.93281767	     26.24940883	    -15.21133239	    -10.01548678	    -63.14082289	    -20.19277952	     14.15594075	     31.54133208	     13.33776153	      8.60586470	      0.23900441
      5.20500000	    -13.15956711	     -6.69490524	      1.57345226	      0.75346205	     -0.00558997	      0.01486463	     14.11975100	     10.29671690	     -2.42264610	     -2.60775113	     -7.27586648	     -0.59244308	      7.02731780	     26.62736742	    -14.92149594	    -10.24049909	    -62.96356447	    -19.51730382	     14.42941975	     31.59330488	     13.21704931	      8.32416556	      0.75155342
      5.21000000	    -13.08710560	     -6.37099075	      1.23890410	      0.75854085	     -0.00508085	      0.01579857	     13.66995467	     10.10501509	     -2.03563632	     -2.59001292	     -7.03826899	     -0.51628975	      7.10213166	     27.00162734	    -14.64175365	    -10.47320246	    -62.74658819	    -18.83579250	     14.61334360	     31.54945542	     13.10733911	      8.04772432	      1.25075680
      5.21500000	    -13.02175818	     -6.05219863	      0.90736040	      0.76359541	     -0.00460974	      0.01670463	     13.23040070	      9.90954769	     -1.65430199	     -2.56763297	     -6.80035760	     -0.44349957	      7.15830710	     27.37939148	    -14.36531776	    -10.71058438	    -62.49106631	    -18.15856606	     14.70215026	     31.42792339	     13.01150318	      7.77803829	      1.73302339
      5.22000000	    -12.96461164	     -5.74236502	      0.58665284	      0.76862837	     -0.00417372	      0.01760800	     12.80513059	      9.71522784	     -1.29035417	     -2.54481930	     -6.56867306	     -0.37309674	      7.19836652	     27.76270169	    -14.09353118	    -10.94070707	    -62.19215150	    -17.49336218	     14.68925675	     31.24801324	     12.92867435	      7.50769005	      2.19348042
      5.22500000	    -12.91215569	     -5.43879276	      0.26853439	      0.77365209	     -0.00377364	      0.01850034	     12.38691895	      9.51995476	     -0.92897318	     -2.51891898	     -6.33160231	     -0.29968382	      7.23004244	     28.14284753	    -13.82863117	    -11.17688075	    -61.85129225	    -16.84421780	     14.57919594	     31.00797616	     12.85686937	      7.24152718	      2.64077984
